<svg width="137" height="32" viewBox="0 0 137 32" fill="none" xmlns="http://www.w3.org/2000/svg">
<path d="M23.6429 8.23777C20.368 5.00957 16.6647 2.93439 13.3949 2.12861C10.0852 1.31302 7.54947 1.84949 6.08518 3.29288C4.69072 4.66743 4.13065 6.99976 4.79497 10.0367C4.82824 10.1888 4.86459 10.3426 4.90405 10.4982C5.00773 10.907 5.13214 11.3227 5.27702 11.7436C6.27437 14.6406 8.24212 17.7813 11.1017 20.6C14.1529 23.6076 17.5759 25.6144 20.6737 26.5262C20.9009 26.5931 21.1263 26.6541 21.3497 26.7091C21.7149 26.7991 22.0705 26.8726 22.4164 26.9303C25.2058 27.3953 27.3567 26.829 28.6594 25.5449L29.9136 26.7811C27.5795 29.0818 23.7225 29.392 19.5625 28.0123C17.4213 27.3022 15.1999 26.1445 13.0645 24.5801C11.9616 23.772 10.8817 22.8555 9.84755 21.8362C8.93885 20.9405 8.1107 20.0098 7.367 19.0596C5.81384 17.0751 4.629 15.0052 3.84788 12.9896C2.15216 8.61371 2.35913 4.49329 4.83105 2.05666C8.98686 -2.03982 17.9707 0.174083 24.8971 7.00155C31.8234 13.829 34.0694 22.6846 29.9136 26.7811L28.6594 25.5449C30.1237 24.1015 30.668 21.602 29.8406 18.3395C29.0231 15.1164 26.9179 11.466 23.6429 8.23777Z" fill="url(#paint0_linear_24_546)"/>
<path d="M16.6058 15.6312C14.315 13.3731 11.7042 11.9736 9.40393 11.4739C7.69686 11.1032 6.30115 11.2446 5.27702 11.7436C4.90704 11.9238 4.58556 12.1508 4.31541 12.417C4.14257 12.5874 3.98609 12.7785 3.84788 12.9896C3.17213 14.0216 2.93357 15.5312 3.35865 17.4329C3.44636 17.8253 3.5614 18.2268 3.70355 18.6342C3.89498 19.1829 4.13558 19.7423 4.42482 20.3047C5.16213 21.7383 6.21549 23.1908 7.57614 24.532C8.93678 25.8732 10.4103 26.9116 11.8647 27.6383C12.4352 27.9235 13.0027 28.1606 13.5594 28.3493C13.9727 28.4894 14.38 28.6028 14.778 28.6893C16.8848 29.1469 18.5174 28.8243 19.5625 28.0123C19.6701 27.9287 19.7715 27.8399 19.8666 27.7462L21.1207 28.9824C18.9174 31.1543 15.0693 31.136 11.2557 29.2925C9.55461 28.4702 7.86035 27.2846 6.32201 25.7682C4.78367 24.2519 3.58095 22.5818 2.7467 20.9049C0.876471 17.1458 0.857994 13.3527 3.06128 11.1808C3.56108 10.6882 4.14551 10.3082 4.79497 10.0367C8.28575 8.57722 13.6553 10.2503 17.86 14.395C21.9272 18.4042 23.6484 23.4878 22.4164 26.9303C22.1378 27.7087 21.7083 28.4032 21.1207 28.9824L19.8666 27.7462C20.2018 27.4157 20.4756 27.0073 20.6737 26.5262C21.077 25.5468 21.1667 24.2665 20.8233 22.7303C20.3164 20.4629 18.8966 17.8893 16.6058 15.6312Z" fill="url(#paint1_linear_24_546)"/>
<path d="M9.58274 22.5541C8.29521 21.2849 6.79914 20.5622 5.48282 20.3574C5.10291 20.2982 4.74971 20.2826 4.42482 20.3047C3.73119 20.3519 3.16663 20.5709 2.7467 20.9049C2.68076 20.9574 2.61838 21.0127 2.55963 21.0706C1.95152 21.67 1.6279 22.6525 1.83606 23.9521C2.0439 25.2496 2.77706 26.7243 4.06458 27.9934C5.35211 29.2626 6.84818 29.9853 8.1645 30.1901C9.48291 30.3953 10.4796 30.0763 11.0877 29.4769L12.3418 30.7131C10.1254 32.8979 5.85805 32.2337 2.81046 29.2297C-0.237131 26.2256 -0.91092 22.0192 1.30551 19.8344C1.95583 19.1933 2.78272 18.7976 3.70355 18.6342C4.83406 18.4336 6.10617 18.5834 7.367 19.0596C8.57935 19.5175 9.78127 20.2773 10.8369 21.3178C11.8459 22.3125 12.5947 23.4389 13.0645 24.5801C13.5974 25.8744 13.7715 27.1877 13.5594 28.3493C13.3936 29.257 12.9921 30.0721 12.3418 30.7131L11.0877 29.4769C11.1464 29.419 11.2025 29.3575 11.2557 29.2925C11.5946 28.8786 11.8168 28.3221 11.8647 27.6383C11.8871 27.3181 11.8712 26.9699 11.8113 26.5954C11.6034 25.2979 10.8703 23.8232 9.58274 22.5541Z" fill="url(#paint2_linear_24_546)"/>
<path d="M134.421 21.76C133.157 21.76 132.189 21.448 131.517 20.824C130.861 20.184 130.533 19.272 130.533 18.088V5.72797H133.197V17.584C133.197 18.144 133.325 18.568 133.581 18.856C133.853 19.144 134.245 19.288 134.757 19.288C134.917 19.288 135.093 19.256 135.285 19.192C135.477 19.128 135.693 19.008 135.933 18.832L136.917 20.872C136.501 21.16 136.085 21.376 135.669 21.52C135.253 21.68 134.837 21.76 134.421 21.76ZM128.541 11.776V9.47197H136.437V11.776H128.541Z" fill="#1B0B3B"/>
<path d="M124.127 26.272V11.704L124.271 9.47203H126.815V26.272H124.127ZM120.335 21.76C119.247 21.76 118.295 21.504 117.479 20.992C116.679 20.464 116.047 19.728 115.583 18.784C115.135 17.84 114.911 16.736 114.911 15.472C114.911 14.192 115.135 13.088 115.583 12.16C116.047 11.216 116.679 10.488 117.479 9.97603C118.295 9.44803 119.247 9.18403 120.335 9.18403C121.343 9.18403 122.207 9.44803 122.927 9.97603C123.663 10.488 124.223 11.216 124.607 12.16C124.991 13.088 125.183 14.192 125.183 15.472C125.183 16.736 124.991 17.84 124.607 18.784C124.223 19.728 123.663 20.464 122.927 20.992C122.207 21.504 121.343 21.76 120.335 21.76ZM121.007 19.312C121.615 19.312 122.151 19.152 122.615 18.832C123.095 18.496 123.463 18.04 123.719 17.464C123.991 16.888 124.127 16.224 124.127 15.472C124.127 14.72 123.991 14.056 123.719 13.48C123.463 12.904 123.095 12.456 122.615 12.136C122.151 11.816 121.607 11.656 120.983 11.656C120.343 11.656 119.775 11.816 119.279 12.136C118.783 12.456 118.391 12.904 118.103 13.48C117.831 14.056 117.687 14.72 117.671 15.472C117.687 16.224 117.831 16.888 118.103 17.464C118.391 18.04 118.783 18.496 119.279 18.832C119.791 19.152 120.367 19.312 121.007 19.312Z" fill="#1B0B3B"/>
<path d="M107.716 21.76C106.548 21.76 105.508 21.496 104.596 20.968C103.7 20.424 102.988 19.68 102.46 18.736C101.948 17.792 101.692 16.704 101.692 15.472C101.692 14.24 101.956 13.152 102.484 12.208C103.012 11.264 103.732 10.528 104.644 10C105.572 9.45603 106.628 9.18403 107.812 9.18403C108.884 9.18403 109.852 9.46403 110.716 10.024C111.58 10.568 112.26 11.36 112.756 12.4C113.268 13.44 113.524 14.68 113.524 16.12H104.092L104.452 15.784C104.452 16.52 104.612 17.16 104.932 17.704C105.252 18.232 105.676 18.64 106.204 18.928C106.732 19.216 107.316 19.36 107.956 19.36C108.692 19.36 109.3 19.2 109.78 18.88C110.26 18.544 110.636 18.112 110.908 17.584L113.284 18.592C112.948 19.232 112.516 19.792 111.988 20.272C111.476 20.752 110.86 21.12 110.14 21.376C109.436 21.632 108.628 21.76 107.716 21.76ZM104.62 14.392L104.236 14.056H111.004L110.644 14.392C110.644 13.736 110.5 13.2 110.212 12.784C109.924 12.352 109.556 12.032 109.108 11.824C108.676 11.6 108.22 11.488 107.74 11.488C107.26 11.488 106.78 11.6 106.3 11.824C105.82 12.032 105.42 12.352 105.1 12.784C104.78 13.2 104.62 13.736 104.62 14.392Z" fill="#1B0B3B"/>
<path d="M88.1641 26.272V9.47203H90.6841L90.8521 11.68V26.272H88.1641ZM94.6441 21.76C93.6361 21.76 92.7641 21.504 92.0281 20.992C91.3081 20.464 90.7561 19.728 90.3721 18.784C89.9881 17.84 89.7961 16.736 89.7961 15.472C89.7961 14.192 89.9881 13.088 90.3721 12.16C90.7561 11.216 91.3081 10.488 92.0281 9.97603C92.7641 9.44803 93.6361 9.18403 94.6441 9.18403C95.7321 9.18403 96.6761 9.44803 97.4761 9.97603C98.2921 10.488 98.9241 11.216 99.3721 12.16C99.8361 13.088 100.068 14.192 100.068 15.472C100.068 16.736 99.8361 17.84 99.3721 18.784C98.9241 19.728 98.2921 20.464 97.4761 20.992C96.6761 21.504 95.7321 21.76 94.6441 21.76ZM93.9721 19.312C94.6121 19.312 95.1801 19.152 95.6761 18.832C96.1721 18.496 96.5641 18.04 96.8521 17.464C97.1561 16.888 97.3081 16.224 97.3081 15.472C97.3081 14.72 97.1641 14.056 96.8761 13.48C96.6041 12.904 96.2201 12.456 95.7241 12.136C95.2281 11.816 94.6521 11.656 93.9961 11.656C93.3881 11.656 92.8441 11.816 92.3641 12.136C91.8841 12.456 91.5081 12.904 91.2361 13.48C90.9801 14.056 90.8521 14.72 90.8521 15.472C90.8521 16.224 90.9801 16.888 91.2361 17.464C91.5081 18.04 91.8761 18.496 92.3401 18.832C92.8201 19.152 93.3641 19.312 93.9721 19.312Z" fill="#1B0B3B"/>
<path d="M81.2324 21.76C80.4324 21.76 79.6964 21.64 79.0244 21.4C78.3524 21.16 77.7764 20.824 77.2964 20.392C76.8164 19.944 76.4484 19.424 76.1924 18.832L78.5204 17.8C78.7604 18.248 79.1124 18.624 79.5764 18.928C80.0564 19.232 80.5844 19.384 81.1604 19.384C81.7844 19.384 82.2804 19.28 82.6484 19.072C83.0324 18.848 83.2244 18.544 83.2244 18.16C83.2244 17.792 83.0804 17.512 82.7924 17.32C82.5044 17.112 82.0964 16.944 81.5684 16.816L80.4404 16.504C79.3044 16.216 78.4164 15.76 77.7764 15.136C77.1364 14.496 76.8164 13.768 76.8164 12.952C76.8164 11.752 77.2004 10.824 77.9684 10.168C78.7524 9.51203 79.8724 9.18403 81.3284 9.18403C82.0644 9.18403 82.7364 9.29603 83.3444 9.52003C83.9684 9.72803 84.5044 10.032 84.9524 10.432C85.4004 10.816 85.7124 11.272 85.8884 11.8L83.6564 12.808C83.4964 12.408 83.1924 12.104 82.7444 11.896C82.2964 11.672 81.8004 11.56 81.2564 11.56C80.7124 11.56 80.2884 11.68 79.9844 11.92C79.6804 12.144 79.5284 12.464 79.5284 12.88C79.5284 13.12 79.6644 13.344 79.9364 13.552C80.2084 13.744 80.6004 13.904 81.1124 14.032L82.5284 14.368C83.3124 14.56 83.9524 14.864 84.4484 15.28C84.9444 15.68 85.3124 16.136 85.5524 16.648C85.7924 17.144 85.9124 17.648 85.9124 18.16C85.9124 18.88 85.7044 19.512 85.2884 20.056C84.8884 20.6 84.3364 21.024 83.6324 21.328C82.9284 21.616 82.1284 21.76 81.2324 21.76Z" fill="#1B0B3B"/>
<path d="M68.4391 21.76C67.2391 21.76 66.1671 21.496 65.2231 20.968C64.2951 20.424 63.5671 19.68 63.0391 18.736C62.5111 17.792 62.2471 16.704 62.2471 15.472C62.2471 14.24 62.5031 13.152 63.0151 12.208C63.5431 11.264 64.2711 10.528 65.1991 10C66.1271 9.45603 67.1911 9.18403 68.3911 9.18403C69.5911 9.18403 70.6551 9.45603 71.5831 10C72.5111 10.528 73.2311 11.264 73.7431 12.208C74.2711 13.152 74.5351 14.24 74.5351 15.472C74.5351 16.704 74.2791 17.792 73.7671 18.736C73.2551 19.68 72.5351 20.424 71.6071 20.968C70.6791 21.496 69.6231 21.76 68.4391 21.76ZM68.4391 19.288C69.0951 19.288 69.6791 19.128 70.1911 18.808C70.7031 18.472 71.1031 18.024 71.3911 17.464C71.6791 16.888 71.8231 16.224 71.8231 15.472C71.8231 14.72 71.6711 14.064 71.3671 13.504C71.0791 12.928 70.6791 12.48 70.1671 12.16C69.6551 11.824 69.0631 11.656 68.3911 11.656C67.7191 11.656 67.1271 11.816 66.6151 12.136C66.1031 12.456 65.7031 12.904 65.4151 13.48C65.1271 14.056 64.9831 14.72 64.9831 15.472C64.9831 16.224 65.1271 16.888 65.4151 17.464C65.7191 18.024 66.1271 18.472 66.6391 18.808C67.1671 19.128 67.7671 19.288 68.4391 19.288Z" fill="#1B0B3B"/>
<path d="M55.9762 15.0883C55.9762 13.7923 56.2242 12.7283 56.7202 11.8963C57.2162 11.0643 57.8562 10.4483 58.6402 10.0483C59.4402 9.63226 60.2722 9.42426 61.1362 9.42426V11.9923C60.4002 11.9923 59.7042 12.0963 59.0482 12.3043C58.4082 12.4963 57.8882 12.8163 57.4882 13.2643C57.0882 13.7123 56.8882 14.3043 56.8882 15.0403L55.9762 15.0883ZM54.2002 21.4723V9.47226H56.8882V21.4723H54.2002Z" fill="#1B0B3B"/>
<path d="M40 26.272V9.47203H42.52L42.688 11.68V26.272H40ZM46.48 21.76C45.472 21.76 44.6 21.504 43.864 20.992C43.144 20.464 42.592 19.728 42.208 18.784C41.824 17.84 41.632 16.736 41.632 15.472C41.632 14.192 41.824 13.088 42.208 12.16C42.592 11.216 43.144 10.488 43.864 9.97603C44.6 9.44803 45.472 9.18403 46.48 9.18403C47.568 9.18403 48.512 9.44803 49.312 9.97603C50.128 10.488 50.76 11.216 51.208 12.16C51.672 13.088 51.904 14.192 51.904 15.472C51.904 16.736 51.672 17.84 51.208 18.784C50.76 19.728 50.128 20.464 49.312 20.992C48.512 21.504 47.568 21.76 46.48 21.76ZM45.808 19.312C46.448 19.312 47.016 19.152 47.512 18.832C48.008 18.496 48.4 18.04 48.688 17.464C48.992 16.888 49.144 16.224 49.144 15.472C49.144 14.72 49 14.056 48.712 13.48C48.44 12.904 48.056 12.456 47.56 12.136C47.064 11.816 46.488 11.656 45.832 11.656C45.224 11.656 44.68 11.816 44.2 12.136C43.72 12.456 43.344 12.904 43.072 13.48C42.816 14.056 42.688 14.72 42.688 15.472C42.688 16.224 42.816 16.888 43.072 17.464C43.344 18.04 43.712 18.496 44.176 18.832C44.656 19.152 45.2 19.312 45.808 19.312Z" fill="#1B0B3B"/>
<defs>
<linearGradient id="paint0_linear_24_546" x1="32" y1="32" x2="-0.0476687" y2="0.0478111" gradientUnits="userSpaceOnUse">
<stop stop-color="#FF7557"/>
<stop offset="0.5" stop-color="#7856FF"/>
<stop offset="0.975962" stop-color="#1B0B3B"/>
</linearGradient>
<linearGradient id="paint1_linear_24_546" x1="32" y1="32" x2="-0.0476687" y2="0.0478111" gradientUnits="userSpaceOnUse">
<stop stop-color="#FF7557"/>
<stop offset="0.5" stop-color="#7856FF"/>
<stop offset="0.975962" stop-color="#1B0B3B"/>
</linearGradient>
<linearGradient id="paint2_linear_24_546" x1="32" y1="32" x2="-0.0476687" y2="0.0478111" gradientUnits="userSpaceOnUse">
<stop stop-color="#FF7557"/>
<stop offset="0.5" stop-color="#7856FF"/>
<stop offset="0.975962" stop-color="#1B0B3B"/>
</linearGradient>
</defs>
</svg>
