<svg width="34" height="40" viewBox="0 0 34 40" fill="none" xmlns="http://www.w3.org/2000/svg">
<path d="M2.469 8.49037C3.44831 5.46493 5.01274 2.79122 7.98783 1.30213C10.6472 -0.0289716 13.3552 -0.398058 16.2419 0.46784C19.7455 1.51883 22.2632 4.49379 24.5497 7.13527C25.012 7.66929 26.0654 8.90148 26.4203 9.44586L26.4493 9.48959C26.4549 9.49845 26.4605 9.50726 26.4661 9.51612C26.8414 9.83562 27.5982 11.0217 27.9485 11.4601C33.3721 18.2454 35.9247 27.1524 29.6815 34.3335C28.2534 35.9761 25.6271 37.8544 23.474 38.5742C19.1362 40.2996 13.6642 40.5706 9.31058 38.769C9.19683 38.7218 9.08387 38.6726 8.97182 38.6218C6.0579 37.3306 3.54923 35.2414 2.05643 32.4485C1.03716 30.546 0.386422 28.4761 0.13695 26.3429C-0.459087 21.5585 0.995669 13.0536 2.469 8.49037Z" fill="url(#paint0_linear_309_274)"/>
<g clip-path="url(#clip0_309_274)">
<mask id="mask0_309_274" style="mask-type:alpha" maskUnits="userSpaceOnUse" x="16" y="15" width="7" height="7">
<path d="M19.1982 15.5147C19.2424 15.3988 19.412 15.4007 19.4534 15.5175L19.5693 15.8437C19.7424 16.3309 20.0256 16.7745 20.3983 17.1418C20.7709 17.5092 21.2236 17.791 21.7231 17.9666L22.0968 18.098C22.2157 18.1398 22.2159 18.3029 22.0971 18.345L21.7226 18.478C21.2367 18.6505 20.7953 18.9237 20.4293 19.2784C20.0632 19.6331 19.7812 20.061 19.6029 20.5322L19.4563 20.9196C19.4129 21.0342 19.2459 21.0345 19.2021 20.92L19.049 20.5201C18.8699 20.0524 18.5886 19.6278 18.2243 19.2755C17.86 18.9233 17.4213 18.6518 16.9385 18.4796L16.5572 18.3437C16.4391 18.3016 16.4388 18.1396 16.5567 18.0971L16.9455 17.9569C17.4263 17.7835 17.8628 17.5114 18.2251 17.1592C18.5875 16.8071 18.8672 16.3832 19.0451 15.9165L19.1982 15.5147Z" fill="#3186FF"/>
</mask>
<g mask="url(#mask0_309_274)">
<g filter="url(#filter0_f_309_274)">
<path d="M19.6192 21.2072C21.7147 21.2072 23.4135 19.8704 23.4135 18.2213C23.4135 16.5723 21.7147 15.2355 19.6192 15.2355C17.5237 15.2355 15.825 16.5723 15.825 18.2213C15.825 19.8704 17.5237 21.2072 19.6192 21.2072Z" fill="black"/>
</g>
<g filter="url(#filter1_f_309_274)">
<path d="M17.1138 19.461C17.8462 19.461 18.4399 18.8514 18.4399 18.0995C18.4399 17.3476 17.8462 16.738 17.1138 16.738C16.3814 16.738 15.7878 17.3476 15.7878 18.0995C15.7878 18.8514 16.3814 19.461 17.1138 19.461Z" fill="black"/>
</g>
<g filter="url(#filter2_f_309_274)">
<path d="M16.8414 19.5733C17.5737 19.5733 18.1674 18.9637 18.1674 18.2118C18.1674 17.4599 17.5737 16.8503 16.8414 16.8503C16.109 16.8503 15.5153 17.4599 15.5153 18.2118C15.5153 18.9637 16.109 19.5733 16.8414 19.5733Z" fill="black"/>
</g>
<g filter="url(#filter3_f_309_274)">
<path d="M20.22 15.6206C19.7941 16.9726 17.7325 17.946 16.9001 17.9585L19.2521 14.184L20.22 15.6206Z" fill="black"/>
</g>
<g filter="url(#filter4_f_309_274)">
<path d="M20.1519 15.1883C19.726 16.5404 17.6644 17.5138 16.832 17.5263L19.184 13.7517L20.1519 15.1883Z" fill="black"/>
</g>
<g filter="url(#filter5_f_309_274)">
<path d="M20.2295 20.6715C19.8036 19.3194 17.7419 18.346 16.9095 18.3335L19.2615 22.1081L20.2295 20.6715Z" fill="black"/>
</g>
<g filter="url(#filter6_f_309_274)">
<path d="M20.2687 21.442C19.8428 20.0899 17.7811 19.1165 16.9487 19.104L19.3007 22.8786L20.2687 21.442Z" fill="black"/>
</g>
</g>
</g>
<path d="M21.3397 24.2621C21.3389 23.5519 21.9145 22.9782 22.6289 22.9798C23.3458 22.9815 23.9307 23.5618 23.936 24.2753L22.6388 24.2727L23.9363 24.2769L23.9367 24.2785L23.9359 24.282C23.9359 24.2844 23.9362 24.2874 23.9362 24.2903C23.9362 24.2963 23.9364 24.3039 23.9363 24.312C23.9361 24.3279 23.9363 24.3485 23.9356 24.3722C23.9341 24.42 23.9307 24.4832 23.925 24.5599C23.9137 24.7135 23.8911 24.9231 23.8468 25.1734C23.7586 25.6718 23.5813 26.349 23.219 27.0699C22.4734 28.5536 20.9875 30.1314 18.1945 30.7653C15.402 31.3989 13.357 30.6224 12.0179 29.612C11.3672 29.1209 10.9023 28.5895 10.5981 28.1802C10.4453 27.9745 10.3305 27.7962 10.2509 27.6632C10.2113 27.5968 10.1796 27.5415 10.1567 27.4993C10.1454 27.4784 10.1363 27.4598 10.1289 27.4455C10.1252 27.4384 10.1204 27.4317 10.1176 27.4264C10.1164 27.4239 10.1152 27.4209 10.1142 27.4188L10.113 27.4141C10.1205 27.4097 10.2113 27.3653 11.2757 26.8515L10.1111 27.4129C9.79382 26.7702 10.0582 25.9971 10.7008 25.6869C11.3435 25.3771 12.1227 25.6475 12.4404 26.2901C12.4472 26.3026 12.4593 26.3255 12.4779 26.3567C12.518 26.4237 12.5849 26.5287 12.6797 26.6563C12.8709 26.9135 13.1659 27.2492 13.5732 27.5567C14.3506 28.1434 15.6158 28.6935 17.5947 28.2445C19.5739 27.7954 20.4607 26.7568 20.8936 25.8954C21.1204 25.444 21.2335 25.0158 21.2889 24.7025C21.3164 24.5472 21.329 24.4241 21.3348 24.3466C21.3376 24.3081 21.3388 24.2806 21.3393 24.2672C21.3393 24.2649 21.3393 24.2627 21.3393 24.2605L21.3397 24.2621Z" fill="black"/>
<defs>
<filter id="filter0_f_309_274" x="13.9596" y="13.3701" width="11.3193" height="9.70244" filterUnits="userSpaceOnUse" color-interpolation-filters="sRGB">
<feFlood flood-opacity="0" result="BackgroundImageFix"/>
<feBlend mode="normal" in="SourceGraphic" in2="BackgroundImageFix" result="shape"/>
<feGaussianBlur stdDeviation="0.93269" result="effect1_foregroundBlur_309_274"/>
</filter>
<filter id="filter1_f_309_274" x="12.4715" y="13.4218" width="9.28457" height="9.35536" filterUnits="userSpaceOnUse" color-interpolation-filters="sRGB">
<feFlood flood-opacity="0" result="BackgroundImageFix"/>
<feBlend mode="normal" in="SourceGraphic" in2="BackgroundImageFix" result="shape"/>
<feGaussianBlur stdDeviation="1.65811" result="effect1_foregroundBlur_309_274"/>
</filter>
<filter id="filter2_f_309_274" x="12.1991" y="13.5341" width="9.28457" height="9.35536" filterUnits="userSpaceOnUse" color-interpolation-filters="sRGB">
<feFlood flood-opacity="0" result="BackgroundImageFix"/>
<feBlend mode="normal" in="SourceGraphic" in2="BackgroundImageFix" result="shape"/>
<feGaussianBlur stdDeviation="1.65811" result="effect1_foregroundBlur_309_274"/>
</filter>
<filter id="filter3_f_309_274" x="13.5838" y="10.8677" width="9.95244" height="10.407" filterUnits="userSpaceOnUse" color-interpolation-filters="sRGB">
<feFlood flood-opacity="0" result="BackgroundImageFix"/>
<feBlend mode="normal" in="SourceGraphic" in2="BackgroundImageFix" result="shape"/>
<feGaussianBlur stdDeviation="1.65811" result="effect1_foregroundBlur_309_274"/>
</filter>
<filter id="filter4_f_309_274" x="13.5157" y="10.4355" width="9.95244" height="10.407" filterUnits="userSpaceOnUse" color-interpolation-filters="sRGB">
<feFlood flood-opacity="0" result="BackgroundImageFix"/>
<feBlend mode="normal" in="SourceGraphic" in2="BackgroundImageFix" result="shape"/>
<feGaussianBlur stdDeviation="1.65811" result="effect1_foregroundBlur_309_274"/>
</filter>
<filter id="filter5_f_309_274" x="13.5932" y="15.0173" width="9.95244" height="10.407" filterUnits="userSpaceOnUse" color-interpolation-filters="sRGB">
<feFlood flood-opacity="0" result="BackgroundImageFix"/>
<feBlend mode="normal" in="SourceGraphic" in2="BackgroundImageFix" result="shape"/>
<feGaussianBlur stdDeviation="1.65811" result="effect1_foregroundBlur_309_274"/>
</filter>
<filter id="filter6_f_309_274" x="13.6324" y="15.7878" width="9.95244" height="10.407" filterUnits="userSpaceOnUse" color-interpolation-filters="sRGB">
<feFlood flood-opacity="0" result="BackgroundImageFix"/>
<feBlend mode="normal" in="SourceGraphic" in2="BackgroundImageFix" result="shape"/>
<feGaussianBlur stdDeviation="1.65811" result="effect1_foregroundBlur_309_274"/>
</filter>
<linearGradient id="paint0_linear_309_274" x1="9.00966" y1="-0.017938" x2="22.9524" y2="38.7214" gradientUnits="userSpaceOnUse">
<stop stop-color="white"/>
<stop offset="0.716866" stop-color="white"/>
<stop offset="1" stop-color="white" stop-opacity="0.6"/>
</linearGradient>
<clipPath id="clip0_309_274">
<rect width="5.7301" height="5.59614" fill="white" transform="translate(16.4648 15.4232)"/>
</clipPath>
</defs>
</svg>
