<?xml version="1.0" encoding="UTF-8"?>
<svg version="1.1" xmlns="http://www.w3.org/2000/svg" width="563" height="295">
<path d="M0 0 C0.83273437 0.68578125 1.66546875 1.3715625 2.5234375 2.078125 C3.23242188 2.66078125 3.94140625 3.2434375 4.671875 3.84375 C15.54082586 13.72461442 22.82761328 28.45519935 23.63427734 43.08886719 C23.69271114 45.21146232 23.71284895 47.32973765 23.7109375 49.453125 C23.71158203 50.1968335 23.71222656 50.94054199 23.71289062 51.70678711 C23.66121079 57.08207768 23.03107928 61.89560638 21.5234375 67.078125 C19.88671875 67.796875 19.88671875 67.796875 17.5234375 68.078125 C14.81640625 66.671875 14.81640625 66.671875 11.7109375 64.578125 C-18.72215027 44.8523307 -55.04931423 41.65214693 -90.08105469 48.65161133 C-91.74720141 49.00736043 -93.4109075 49.37483875 -95.07128906 49.7565918 C-99.67284885 50.80858986 -103.75210574 51.26585176 -108.4765625 51.078125 C-107.10710198 41.5639782 -104.90411394 32.36409846 -102.4765625 23.078125 C-101.41296509 23.048396 -101.41296509 23.048396 -100.32788086 23.01806641 C-72.81828659 24.06279643 -72.81828659 24.06279643 -48.4765625 15.078125 C-53.10258088 13.32572919 -57.4950941 12.62508043 -62.39453125 12.26171875 C-63.13359207 12.20033218 -63.87265289 12.13894562 -64.6341095 12.07569885 C-66.97691948 11.88199081 -69.32035582 11.69813564 -71.6640625 11.515625 C-74.01834079 11.32823532 -76.37239433 11.13867969 -78.72615051 10.94483948 C-80.18601792 10.82500699 -81.64621225 10.70907736 -83.10673523 10.59751892 C-86.08581102 10.35629848 -88.62674191 10.0280652 -91.4765625 9.078125 C-91.16059738 6.09998572 -90.49353903 5.09473314 -88.31640625 2.96484375 C-62.27130941 -16.77053918 -26.84822133 -20.77083026 0 0 Z " fill="#05498B" transform="translate(355.4765625,60.921875)"/>
<path d="M0 0 C100.98 0 201.96 0 306 0 C306 4.29 306 8.58 306 13 C205.02 13 104.04 13 0 13 C0 8.71 0 4.42 0 0 Z " fill="#054A8B" transform="translate(37,254)"/>
<path d="M0 0 C2.12493141 -0.02693575 4.24995912 -0.04636628 6.375 -0.0625 C7.55835938 -0.07410156 8.74171875 -0.08570313 9.9609375 -0.09765625 C13 0 13 0 15 1 C15.09752461 6.46137814 14.77249145 11.59255982 14 17 C14.38671875 16.21753906 14.7734375 15.43507812 15.171875 14.62890625 C15.69265625 13.61699219 16.2134375 12.60507813 16.75 11.5625 C17.26046875 10.55316406 17.7709375 9.54382813 18.296875 8.50390625 C20 6 20 6 22.078125 5.08984375 C24 5 24 5 26 6 C26.11138159 11.45769811 25.91657981 16.61509359 25 22 C27.31 18.7 29.62 15.4 32 12 C36 13 36 13 37 14 C37.32221338 20.01464969 36.49003721 25.19086845 35 31 C34.71382813 32.16208984 34.71382813 32.16208984 34.421875 33.34765625 C33.95615457 35.23382399 33.47925183 37.11722494 33 39 C34.98 39 36.96 39 39 39 C39.01417969 38.34773438 39.02835937 37.69546875 39.04296875 37.0234375 C39.55458552 27.64840585 39.55458552 27.64840585 42.9921875 23.984375 C47.80009283 21.62719184 53.79929558 22.61997559 59 23 C58.03644647 33.55808656 58.03644647 33.55808656 57 38 C59.97 38.495 59.97 38.495 63 39 C63.06058594 38.26394531 63.12117188 37.52789062 63.18359375 36.76953125 C63.26738281 35.79371094 63.35117187 34.81789062 63.4375 33.8125 C63.55931641 32.36810547 63.55931641 32.36810547 63.68359375 30.89453125 C63.97666151 28.21350398 64.42703754 25.6337014 65 23 C67.64 23 70.28 23 73 23 C73 24.65 73 26.3 73 28 C74.65 26.02 76.3 24.04 78 22 C79.65 22.33 81.3 22.66 83 23 C83.20674944 28.78898419 82.59162079 33.42932723 81 39 C82.98 39 84.96 39 87 39 C86.94779297 38.11248047 86.94779297 38.11248047 86.89453125 37.20703125 C86.72452988 32.2446104 86.80320698 29.05746807 90 25 C92 23 92 23 95.2578125 22.8046875 C96.53398437 22.82789063 97.81015625 22.85109375 99.125 22.875 C101.04699219 22.90207031 101.04699219 22.90207031 103.0078125 22.9296875 C104.48894531 22.96449219 104.48894531 22.96449219 106 23 C105.03644647 33.55808656 105.03644647 33.55808656 104 38 C105.98 38.33 107.96 38.66 110 39 C110.13277344 38.01257813 110.26554687 37.02515625 110.40234375 36.0078125 C110.57894531 34.72648437 110.75554687 33.44515625 110.9375 32.125 C111.11152344 30.84882813 111.28554688 29.57265625 111.46484375 28.2578125 C112 25 112 25 113 23 C115.31 23 117.62 23 120 23 C119.85764543 24.72945653 119.71095618 26.45855654 119.5625 28.1875 C119.44068359 29.63189453 119.44068359 29.63189453 119.31640625 31.10546875 C119.02333849 33.78649602 118.57296246 36.3662986 118 39 C119.98 39 121.96 39 124 39 C124.06058594 38.26394531 124.12117188 37.52789062 124.18359375 36.76953125 C124.26738281 35.79371094 124.35117187 34.81789062 124.4375 33.8125 C124.55931641 32.36810547 124.55931641 32.36810547 124.68359375 30.89453125 C124.97666151 28.21350398 125.42703754 25.6337014 126 23 C128.64 23 131.28 23 134 23 C134 24.65 134 26.3 134 28 C134.53625 27.195625 135.0725 26.39125 135.625 25.5625 C138.43105369 22.53491576 139.96825194 22.27489191 144 22 C144.99 23.98 144.99 23.98 146 26 C146.556875 25.319375 147.11375 24.63875 147.6875 23.9375 C148.8321875 22.9784375 148.8321875 22.9784375 150 22 C152.75 22.25 152.75 22.25 155 23 C155.20674944 28.78898419 154.59162079 33.42932723 153 39 C154.98 39 156.96 39 159 39 C159.07347656 38.02160156 159.07347656 38.02160156 159.1484375 37.0234375 C159.57242229 32.06720147 160.15665573 27.66980549 162 23 C164.31 23 166.62 23 169 23 C168.03644647 33.55808656 168.03644647 33.55808656 167 38 C169.31 38.33 171.62 38.66 174 39 C173.1875 41.4375 173.1875 41.4375 172 44 C169.32356043 44.89214652 167.74615622 45.13540211 165 45.125 C163.9790625 45.12886719 163.9790625 45.12886719 162.9375 45.1328125 C161 45 161 45 158 44 C157.01 44.495 157.01 44.495 156 45 C154.125 45.1328125 154.125 45.1328125 152 45.125 C150.948125 45.12886719 150.948125 45.12886719 149.875 45.1328125 C148 45 148 45 146 44 C145.59270772 41.67843403 145.25561323 39.3431213 145 37 C144.61328125 37.5775 144.2265625 38.155 143.828125 38.75 C143.30734375 39.4925 142.7865625 40.235 142.25 41 C141.48429687 42.11375 141.48429687 42.11375 140.703125 43.25 C140.14109375 43.8275 139.5790625 44.405 139 45 C137.68 45 136.36 45 135 45 C134.01 42.03 134.01 42.03 133 39 C132.46375 39.804375 131.9275 40.60875 131.375 41.4375 C128.40784917 44.63889958 127.31756352 44.76449654 123 45 C112.91064389 45.30354796 112.91064389 45.30354796 109 44 C106.6593935 44.27769908 104.32375692 44.60539977 102 45 C101.896875 46.03125 101.79375 47.0625 101.6875 48.125 C100.83747382 52.91605663 99.46508655 56.53491345 96 60 C93.5 60.25 93.5 60.25 91 60 C88.14304316 57.14304316 88.31763213 55.00216484 88 51 C88.20146057 47.9780914 88.55846564 44.99564083 89 42 C88.01 42.7425 88.01 42.7425 87 43.5 C82.95220076 45.52389962 80.50429853 45.36324988 76 45 C73 43 73 43 72.3125 40.875 C72.209375 40.25625 72.10625 39.6375 72 39 C71.46375 39.804375 70.9275 40.60875 70.375 41.4375 C67.40784917 44.63889958 66.31756352 44.76449654 62 45 C51.91064389 45.30354796 51.91064389 45.30354796 48 44 C47.67 44.33 47.34 44.66 47 45 C43.93518979 45.1613058 41.94450722 44.98150241 39 44 C38.01 44.33 37.02 44.66 36 45 C34.0625 45.16796875 34.0625 45.16796875 32 45.1875 C30.9790625 45.20876953 30.9790625 45.20876953 29.9375 45.23046875 C28 45 28 45 25 43 C25.33 39.37 25.66 35.74 26 32 C23.36 36.29 20.72 40.58 18 45 C16.68 44.67 15.36 44.34 14 44 C13.9023618 38.53226072 14.27688445 33.42051971 15 28 C14.49210937 29.14339844 13.98421875 30.28679687 13.4609375 31.46484375 C12.76680947 32.956281 12.07143135 34.4471369 11.375 35.9375 C11.04371094 36.69224609 10.71242188 37.44699219 10.37109375 38.22460938 C9.37313758 40.32408321 8.43825603 42.17200479 7 44 C3.7265625 45.00390625 3.7265625 45.00390625 1 45 C0.90024213 40.33714806 1.1984304 36.0617513 2.05859375 31.48046875 C2.27966797 30.29388672 2.50074219 29.10730469 2.72851562 27.88476562 C2.96248047 26.66466797 3.19644531 25.44457031 3.4375 24.1875 C3.66759766 22.94806641 3.89769531 21.70863281 4.13476562 20.43164062 C5.85860813 11.28278374 5.85860813 11.28278374 7 9 C4.03 9 1.06 9 -2 9 C-1.34 6.03 -0.68 3.06 0 0 Z M48 29 C47.67 31.97 47.34 34.94 47 38 C47.66 38 48.32 38 49 38 C49.66 35.03 50.32 32.06 51 29 C50.01 29 49.02 29 48 29 Z M96 29 C94.04968392 33.94749352 94.04968392 33.94749352 95 39 C97.29633824 35.55549263 97.54016485 33.06187717 98 29 C97.34 29 96.68 29 96 29 Z M73 36 C74 38 74 38 74 38 Z M134 36 C135 38 135 38 135 38 Z M93 51 C94 53 94 53 94 53 Z " fill="#064787" transform="translate(353,203)"/>
<path d="M0 0 C8.65479157 8.41200494 15.34686846 18.17657074 21.53173828 28.48876953 C21.91990723 29.09237305 22.30807617 29.69597656 22.70800781 30.31787109 C25.61868279 35.00237497 25.61868279 35.00237497 25.13696289 37.69726562 C24.93723877 38.28846191 24.73751465 38.8796582 24.53173828 39.48876953 C23.38898438 38.14685547 23.38898438 38.14685547 22.22314453 36.77783203 C19.51776526 33.60511193 16.79747057 30.44546782 14.07421875 27.28808594 C12.7778759 25.77589112 11.49847135 24.24919888 10.22314453 22.71923828 C-11.06556897 -2.19137355 -43.55218607 -16.23351599 -75.68945312 -19.30029297 C-126.42177381 -23.15134947 -177.60560183 -4.82052795 -219.92529297 22.30908203 C-222.94645556 23.71060446 -225.17572194 23.70987439 -228.46826172 23.48876953 C-228.23645999 19.61033087 -227.79165787 17.84882819 -225.15966797 14.91845703 C-224.13223151 14.04821751 -223.0878729 13.19771105 -222.03076172 12.36376953 C-221.45946533 11.8985791 -220.88816895 11.43338867 -220.29956055 10.95410156 C-212.73210093 4.92464549 -204.65853914 -0.37507775 -196.46826172 -5.51123047 C-195.82050781 -5.92115234 -195.17275391 -6.33107422 -194.50537109 -6.75341797 C-138.04347086 -41.9903735 -51.13554772 -47.43631259 0 0 Z " fill="#064889" transform="translate(389.46826171875,146.51123046875)"/>
<path d="M0 0 C0.69867188 0.54527344 1.39734375 1.09054688 2.1171875 1.65234375 C8.43802324 6.72305864 14.00630196 13.42770497 17 21 C17 22.32 17 23.64 17 25 C12.57226821 24.56570095 10.12791024 21.52225845 7.125 18.5625 C-12.40130227 0.0303748 -36.88684681 -12.23994987 -64 -14 C-64.78246094 -14.05414063 -65.56492187 -14.10828125 -66.37109375 -14.1640625 C-81.52948568 -14.68431932 -96.8576901 -11.22947151 -111 -6 C-111.67595215 -5.75266113 -112.3519043 -5.50532227 -113.04833984 -5.25048828 C-128.26973862 0.41883326 -142.51870898 8.08993607 -155.6171875 17.69921875 C-158 19 -158 19 -160.3203125 18.70703125 C-160.87460938 18.47371094 -161.42890625 18.24039063 -162 18 C-159.46476355 6.73228242 -147.84357112 -1.28753379 -138.63671875 -7.13671875 C-135.15087824 -9.21082074 -131.59386355 -11.11939734 -128 -13 C-126.96101563 -13.5465625 -125.92203125 -14.093125 -124.8515625 -14.65625 C-83.78239158 -34.93221348 -34.95854782 -28.77507209 0 0 Z " fill="#064888" transform="translate(387,161)"/>
<path d="M0 0 C15.84990199 -0.71324559 15.84990199 -0.71324559 22.375 5.125 C26.51036946 12.44142289 26.31190893 20.73972606 26.25 28.9375 C26.26160156 30.46793945 26.26160156 30.46793945 26.2734375 32.02929688 C26.23240467 48.10390745 26.23240467 48.10390745 21.6875 54 C15.22105683 58.81223677 8.95715458 58.33404646 1.1875 58.3125 C0.03701172 58.32861328 -1.11347656 58.34472656 -2.29882812 58.36132812 C-16.40399747 58.36941132 -16.40399747 58.36941132 -21.54980469 53.54785156 C-26.27599172 48.06334599 -26.23844736 44.24876404 -26.3125 37.3125 C-26.34150391 36.42626953 -26.37050781 35.54003906 -26.40039062 34.62695312 C-26.45912596 28.52299623 -25.57602303 24.98416397 -22 20 C-16.86757637 16.05198182 -11.68831159 15.87356935 -5.38671875 15.90234375 C-4.13955078 15.90556641 -2.89238281 15.90878906 -1.60742188 15.91210938 C-0.31384766 15.92048828 0.97972656 15.92886719 2.3125 15.9375 C4.28186523 15.94426758 4.28186523 15.94426758 6.29101562 15.95117188 C9.5273901 15.96294051 12.76367178 15.9793824 16 16 C14.27773504 12.75150023 14.27773504 12.75150023 11 12 C9.10787263 11.77820215 7.21115528 11.59385985 5.3125 11.4375 C4.31863281 11.35371094 3.32476562 11.26992187 2.30078125 11.18359375 C1.54152344 11.12300781 0.78226563 11.06242188 0 11 C-1.125 3.375 -1.125 3.375 0 0 Z M-18 33 C-18.77032815 35.00888517 -18.77032815 35.00888517 -18.625 37 C-18.63789063 37.639375 -18.65078125 38.27875 -18.6640625 38.9375 C-17.56681403 42.34542466 -16.13777362 44.35899405 -13 46 C-8.44928239 46.75115642 -3.9773432 46.6972125 0.625 46.625 C1.86507812 46.64433594 3.10515625 46.66367188 4.3828125 46.68359375 C5.56875 46.67714844 6.7546875 46.67070312 7.9765625 46.6640625 C9.60198975 46.65560303 9.60198975 46.65560303 11.26025391 46.64697266 C14.14722445 46.24395754 14.14722445 46.24395754 15.86474609 43.88427734 C17.21589813 40.45147947 17.29896691 37.86590816 17.1875 34.1875 C17.16042969 33.02605469 17.13335937 31.86460937 17.10546875 30.66796875 C17.05326172 29.34732422 17.05326172 29.34732422 17 28 C12.81919399 27.87596879 8.63937498 27.78546399 4.45727539 27.7253418 C3.03618709 27.70026853 1.61522687 27.66620001 0.19458008 27.62280273 C-1.85367462 27.56182142 -3.90021883 27.53372238 -5.94921875 27.51171875 C-7.17987061 27.48553467 -8.41052246 27.45935059 -9.6784668 27.43237305 C-13.90594699 28.15482005 -15.34371176 29.71459899 -18 33 Z " fill="#074888" transform="translate(224,192)"/>
<path d="M0 0 C6.98513278 0.04049352 14.01199678 0.17787028 20 4 C26.07357938 11.54992637 25.21233525 20.59746667 25.25 29.75 C25.270625 30.9875 25.29125 32.225 25.3125 33.5 C25.34170683 40.36360536 25.23264763 46.79317493 22 53 C16.0108238 58.9891762 9.71666883 58.21687492 1.71313477 58.24023438 C-0.29488027 58.24991505 -2.30275382 58.28111291 -4.31054688 58.3125 C-5.58607422 58.31765625 -6.86160156 58.3228125 -8.17578125 58.328125 C-9.92242065 58.34214355 -9.92242065 58.34214355 -11.7043457 58.35644531 C-17.97544371 57.67818743 -21.92323957 54.65915477 -26 50 C-27.37473284 45.87580148 -27.22391707 42.00748491 -27.25 37.6875 C-27.270625 36.84509766 -27.29125 36.00269531 -27.3125 35.13476562 C-27.34468379 29.98938156 -26.87952384 26.44582066 -24 22 C-19.18690506 17.6564753 -16.12503 16.83675908 -9.8046875 16.68359375 C-9.09724396 16.66281265 -8.38980042 16.64203156 -7.66091919 16.62062073 C-5.39904575 16.55518922 -3.13705538 16.49627026 -0.875 16.4375 C0.65756422 16.39430867 2.19011657 16.35069418 3.72265625 16.30664062 C7.48165073 16.19951445 11.24076292 16.0982291 15 16 C14.505 15.01 14.505 15.01 14 14 C10.99221479 12.99740493 8.46179353 12.69685358 5.3125 12.4375 C4.31863281 12.35371094 3.32476562 12.26992187 2.30078125 12.18359375 C1.54152344 12.12300781 0.78226563 12.06242188 0 12 C-1.85428136 7.82253854 -2.12192931 5.48771722 -1 1 C-0.67 0.67 -0.34 0.34 0 0 Z M-18 31 C-19.49084832 35.47254497 -19.49084832 39.52745503 -18 44 C-12.53859805 47.89969671 -6.80009681 47.41314375 -0.375 47.3125 C0.66140625 47.31572266 1.6978125 47.31894531 2.765625 47.32226562 C9.18664162 47.40825063 9.18664162 47.40825063 15 45 C16.53266582 41.93466836 16.10276471 38.73245728 16.0625 35.375 C16.05798828 34.66859375 16.05347656 33.9621875 16.04882812 33.234375 C16.03703875 31.48954725 16.01910324 29.744763 16 28 C11.9615943 27.9255611 7.92345707 27.87126271 3.88452148 27.83520508 C2.51205483 27.82016568 1.13963586 27.79972867 -0.23266602 27.77368164 C-2.21088656 27.73708779 -4.18946514 27.72183302 -6.16796875 27.70703125 C-7.35672607 27.6913208 -8.5454834 27.67561035 -9.77026367 27.65942383 C-13.33373502 28.03519241 -15.1905826 28.80404862 -18 31 Z " fill="#064889" transform="translate(118,191)"/>
<path d="M0 0 C1.29422379 0.00212242 1.29422379 0.00212242 2.61459351 0.00428772 C5.3759098 0.00989437 8.13714562 0.02244798 10.8984375 0.03515625 C12.768228 0.04017039 14.63801976 0.04473345 16.5078125 0.04882812 C21.09638527 0.05986596 25.68489773 0.07713505 30.2734375 0.09765625 C30.4961121 1.53300466 30.70105656 2.9711115 30.8984375 4.41015625 C31.01445313 5.21066406 31.13046875 6.01117188 31.25 6.8359375 C31.2734375 9.09765625 31.2734375 9.09765625 29.2734375 12.09765625 C26.63047292 12.41125747 24.20943057 12.53864975 21.5625 12.5390625 C20.41568253 12.55887428 20.41568253 12.55887428 19.24569702 12.5790863 C16.79657398 12.62006059 14.34782617 12.64166577 11.8984375 12.66015625 C9.45630584 12.68396198 7.01452694 12.71214465 4.57260132 12.75193787 C3.0524013 12.77623686 1.53201502 12.79114264 0.0116272 12.79554749 C-3.81854297 12.85176971 -6.39484426 13.25015881 -9.7265625 15.09765625 C-9.85005366 21.02409224 -9.94085022 26.94978154 -10.0012207 32.87719727 C-10.02638321 34.8939315 -10.0605168 36.91057438 -10.10375977 38.92700195 C-10.16433575 41.82395945 -10.19275419 44.71971286 -10.21484375 47.6171875 C-10.24065018 48.52040237 -10.2664566 49.42361725 -10.29304504 50.35420227 C-10.39737949 55.28516313 -10.39737949 55.28516313 -7.68701172 59.16479492 C-4.03922055 60.31424322 -0.65778803 60.51998279 3.12890625 60.50390625 C3.87175369 60.51474243 4.61460114 60.52557861 5.37995911 60.53674316 C8.54352734 60.58249463 11.70700941 60.59414286 14.87084961 60.60888672 C17.18633588 60.62453029 19.50112729 60.65750145 21.81640625 60.69140625 C22.5341069 60.68838501 23.25180756 60.68536377 23.99125671 60.68225098 C26.00463867 60.71289062 26.00463867 60.71289062 29.2734375 61.09765625 C31.50895509 64.45093264 31.44627278 65.00509282 30.8984375 68.78515625 C30.78757813 69.59339844 30.67671875 70.40164062 30.5625 71.234375 C30.41941406 72.15669922 30.41941406 72.15669922 30.2734375 73.09765625 C24.8658435 73.2467627 19.45946394 73.35522624 14.05029297 73.42724609 C12.21316668 73.45728878 10.37618228 73.49813644 8.53955078 73.55029297 C5.88798926 73.6236677 3.23833434 73.65723612 0.5859375 73.68359375 C-0.22584961 73.71456146 -1.03763672 73.74552917 -1.87402344 73.7774353 C-7.46881292 73.78068506 -10.80677906 72.4115903 -15.07504272 68.76809692 C-19.75175327 64.0378069 -20.08091993 59.4519086 -20.1434021 53.10095215 C-20.13732941 52.078927 -20.13125671 51.05690186 -20.125 50.00390625 C-20.12787018 48.93901978 -20.13074036 47.8741333 -20.13369751 46.77697754 C-20.13573407 44.53116319 -20.13023283 42.28533095 -20.11767578 40.03955078 C-20.10161699 36.60929561 -20.11753903 33.18021868 -20.13671875 29.75 C-20.13473625 27.56379949 -20.13089243 25.37759972 -20.125 23.19140625 C-20.13410904 21.65836853 -20.13410904 21.65836853 -20.1434021 20.09436035 C-20.08271272 13.92563043 -19.59734892 9.17297707 -15.19140625 4.453125 C-9.79184138 0.32404598 -6.68257614 -0.04092612 0 0 Z " fill="#06488A" transform="translate(56.7265625,175.90234375)"/>
<path d="M0 0 C0.91587891 -0.01611328 1.83175781 -0.03222656 2.77539062 -0.04882812 C9.54470479 -0.05368765 14.42066267 0.84997885 19.875 5.125 C24.77893833 11.48195709 23.90119613 19.44063577 23.87817383 27.05249023 C23.87501361 29.24057852 23.89851008 31.42731275 23.92382812 33.61523438 C23.92610166 35.02343582 23.92680436 36.43164085 23.92578125 37.83984375 C23.92876221 39.10562256 23.93174316 40.37140137 23.93481445 41.67553711 C23.45306713 46.38149767 22.21455558 50.39370628 19.0625 54.0546875 C12.70862846 58.85318424 7.5705704 58.55633042 -0.125 58.625 C-1.72118164 58.66850586 -1.72118164 58.66850586 -3.34960938 58.71289062 C-9.79112333 58.76461371 -15.19270216 58.3584869 -20.4375 54.3125 C-26.23139817 47.21078164 -25.64709405 38.78702538 -25.6875 30.125 C-25.708125 29.03896484 -25.72875 27.95292969 -25.75 26.83398438 C-25.78406817 19.74354694 -25.75682999 11.48871048 -21.12670898 5.66333008 C-14.90609373 0.06770917 -7.89692262 -0.02766967 0 0 Z M-15.4375 15.3125 C-17.54820592 19.53391183 -16.71126262 25.04934485 -16.75 29.6875 C-16.77900391 30.83734375 -16.80800781 31.9871875 -16.83789062 33.171875 C-16.84626953 34.27789062 -16.85464844 35.38390625 -16.86328125 36.5234375 C-16.87786377 37.53712402 -16.89244629 38.55081055 -16.9074707 39.59521484 C-16.3157609 43.01637336 -15.09838567 44.1614641 -12.4375 46.3125 C-8.72632902 47.86294477 -4.53422513 47.53334972 -0.5625 47.5625 C0.13230469 47.583125 0.82710938 47.60375 1.54296875 47.625 C6.3064013 47.66088273 9.5326792 46.85116387 13.5625 44.3125 C15.72967275 39.9781545 14.74746361 34.13579475 14.75 29.375 C14.76836914 27.56612305 14.76836914 27.56612305 14.78710938 25.72070312 C14.78904297 24.56634766 14.79097656 23.41199219 14.79296875 22.22265625 C14.79707764 21.16183838 14.80118652 20.10102051 14.80541992 19.00805664 C14.7587782 16.08932148 14.7587782 16.08932148 12.5625 13.3125 C8.28067238 11.88522413 4.17304564 12.08802231 -0.3125 12.0625 C-1.21097656 12.041875 -2.10945313 12.02125 -3.03515625 12 C-7.96604522 11.97086624 -11.47731044 12.00966984 -15.4375 15.3125 Z " fill="#06488A" transform="translate(318.4375,190.6875)"/>
<path d="M0 0 C0.94875 0.04125 1.8975 0.0825 2.875 0.125 C10.01599427 13.72325698 17.06797419 27.35624324 23.875 41.125 C29.62547098 30.30922053 35.27693573 19.45952942 40.64990234 8.45019531 C41.04387207 7.6506543 41.4378418 6.85111328 41.84375 6.02734375 C42.18857422 5.32085693 42.53339844 4.61437012 42.88867188 3.88647461 C43.875 2.125 43.875 2.125 45.875 0.125 C48.375 -0.125 48.375 -0.125 50.875 0.125 C51.535 0.785 52.195 1.445 52.875 2.125 C52.65628423 8.52800249 50.74985354 13.20374403 47.83203125 18.83203125 C47.22291145 20.04109383 47.22291145 20.04109383 46.60148621 21.27458191 C45.30802362 23.83474921 43.9979332 26.38598531 42.6875 28.9375 C41.8264063 30.6381317 40.96637082 32.33929965 40.10742188 34.04101562 C38.07974351 38.04790292 36.02906223 42.04219861 33.96099854 46.02838135 C33.27371975 47.35523536 32.58966789 48.68377011 31.91009521 50.0145874 C31.09926125 51.60183182 30.27487125 53.18213194 29.44921875 54.76171875 C29.01569092 55.59791748 28.58216309 56.43411621 28.13549805 57.2956543 C26.875 59.125 26.875 59.125 23.875 60.125 C18.83987814 55.79306288 16.31001846 50.72141602 13.390625 44.8203125 C12.63903107 43.32430008 12.63903107 43.32430008 11.87225342 41.79806519 C10.81860814 39.69416765 9.76997974 37.58775104 8.72607422 35.47900391 C7.13040154 32.26089368 5.51368532 29.05400416 3.89453125 25.84765625 C2.87111273 23.79751502 1.84893527 21.74675369 0.828125 19.6953125 C0.34587463 18.74093292 -0.13637573 17.78655334 -0.63323975 16.80325317 C-3.04937487 11.88526747 -5.00295344 7.65443789 -5.125 2.125 C-3.125 0.125 -3.125 0.125 0 0 Z " fill="#064886" transform="translate(149.125,190.875)"/>
<path d="M0 0 C4.17618909 0.31546752 6.11564224 1.71264683 8.89257812 4.79492188 C9.34052734 5.31634766 9.78847656 5.83777344 10.25 6.375 C10.72888672 6.91447266 11.20777344 7.45394531 11.70117188 8.00976562 C15.48190703 12.30263223 19.08305321 16.73839048 22.66796875 21.1953125 C26.13414332 25.36401156 29.81977912 29.31208674 33.51953125 33.2734375 C36 36 36 36 37.72119141 38.63061523 C39.83715677 41.28354981 39.83715677 41.28354981 43.18188477 41.62768555 C45.0428479 41.63215698 45.0428479 41.63215698 46.94140625 41.63671875 C47.95559883 41.65113007 47.95559883 41.65113007 48.99028015 41.66583252 C50.43446439 41.68429831 51.87881936 41.69201541 53.32312012 41.68991089 C57.06638414 41.68588094 60.80820889 41.76232911 64.55078125 41.828125 C65.28517426 41.83887558 66.01956726 41.84962616 66.7762146 41.86070251 C72.63075262 41.95717153 78.42728872 42.30204608 84.25 42.9375 C84.98549072 43.01250732 85.72098145 43.08751465 86.47875977 43.16479492 C90.27170604 43.6071462 93.53182438 44.39361633 97 46 C96.67 46.99 96.34 47.98 96 49 C86.69864581 53.47245242 75.12686779 52.38942864 65.10766602 52.28125 C62.17646583 52.24988192 59.24580526 52.24024504 56.31445312 52.234375 C54.43228515 52.22521043 52.5501226 52.21483641 50.66796875 52.203125 C49.36777046 52.19675018 49.36777046 52.19675018 48.04130554 52.19024658 C35.22059686 52.04033077 35.22059686 52.04033077 31.8046875 49.12890625 C31.16789062 48.28199219 30.53109375 47.43507812 29.875 46.5625 C28.73611328 45.06976563 28.73611328 45.06976563 27.57421875 43.546875 C26.71339356 42.36658575 25.85552375 41.18413759 25 40 C24.51225098 39.33162109 24.02450195 38.66324219 23.52197266 37.97460938 C20.78463908 34.22006385 18.07069863 30.4497121 15.37109375 26.66796875 C13.13698901 23.55141541 10.86076747 20.47465295 8.53515625 17.42578125 C7.9831958 16.70156982 7.43123535 15.9773584 6.86254883 15.23120117 C5.811769 13.85874431 4.75585303 12.49019987 3.6940918 11.1262207 C-0.42407046 5.73974048 -0.42407046 5.73974048 -1 2 C-0.67 1.34 -0.34 0.68 0 0 Z " fill="#064987" transform="translate(204,30)"/>
<path d="M0 0 C2.33294775 -0.04241723 4.66702567 -0.04092937 7 0 C8.86798462 1.86798462 8.12779067 5.01731227 8.12939453 7.50756836 C8.13114685 8.18725174 8.13289917 8.86693512 8.13470459 9.56721497 C8.13912303 11.82478351 8.13618484 14.08227435 8.1328125 16.33984375 C8.13348562 17.90304072 8.13445571 19.46623759 8.13571167 21.0294342 C8.13718869 24.31056715 8.13503423 27.59167293 8.13037109 30.87280273 C8.1246785 35.08420701 8.1279498 39.2955475 8.13394356 43.50694942 C8.13755306 46.73678571 8.13640871 49.96660682 8.13381577 53.19644356 C8.13314733 54.74942596 8.13397202 56.30240974 8.13629532 57.85539055 C8.13882769 60.02464331 8.13497277 62.19379211 8.12939453 64.36303711 C8.12859894 65.59912216 8.12780334 66.83520721 8.12698364 68.10874939 C8 71 8 71 7 73 C4.125 73.1875 4.125 73.1875 1 73 C-1.37870378 69.43194433 -1.24814889 67.89790743 -1.24291992 63.66430664 C-1.24599655 62.35607437 -1.24907318 61.0478421 -1.25224304 59.69996643 C-1.24534416 58.27002793 -1.2380771 56.84009116 -1.23046875 55.41015625 C-1.22927638 53.94429057 -1.22882391 52.47842412 -1.2290802 51.01255798 C-1.227516 47.94004534 -1.21923237 44.86764932 -1.20581055 41.79516602 C-1.18883582 37.8597731 -1.18499587 33.92450852 -1.18575573 29.98908329 C-1.18548355 26.96161172 -1.17999431 23.93416811 -1.17275429 20.90670586 C-1.16957529 19.45585784 -1.16760201 18.00500666 -1.16686058 16.55415535 C-1.16468805 14.52445459 -1.155138 12.49476579 -1.14526367 10.46508789 C-1.14145187 9.31053604 -1.13764008 8.15598419 -1.13371277 6.96644592 C-1.0206284 4.45764547 -0.73435373 2.38730584 0 0 Z " fill="#06488B" transform="translate(259,176)"/>
<path d="M0 0 C1.4540625 0.0309375 1.4540625 0.0309375 2.9375 0.0625 C5.08465558 3.56023629 5.19058584 6.35619643 5.19628906 10.41992188 C5.20259338 11.70805786 5.20889771 12.99619385 5.21539307 14.32336426 C5.21181317 15.72599423 5.20771118 17.12862296 5.203125 18.53125 C5.20447278 19.97326727 5.20641425 21.41528409 5.20892334 22.8572998 C5.21186932 25.87675307 5.20759396 28.89608786 5.19824219 31.91552734 C5.18684787 35.78257427 5.19341017 39.64934356 5.20538712 43.51638031 C5.21261997 46.49324631 5.21031125 49.47004668 5.20513153 52.44691467 C5.20379898 53.8726454 5.20542894 55.29838211 5.21009064 56.72410583 C5.215179 58.71776208 5.20604622 60.71143926 5.19628906 62.70507812 C5.19390228 64.40573425 5.19390228 64.40573425 5.19146729 66.14074707 C4.9437483 68.99061674 4.41908844 70.64897874 2.9375 73.0625 C0.93795254 73.10504356 -1.06291636 73.10330783 -3.0625 73.0625 C-4.94310496 71.18189504 -4.19030999 67.94891856 -4.19189453 65.44726562 C-4.19364685 64.75622238 -4.19539917 64.06517914 -4.19720459 63.35319519 C-4.20162254 61.05835493 -4.19868533 58.76359111 -4.1953125 56.46875 C-4.19598556 54.88073715 -4.19695559 53.29272441 -4.19821167 51.70471191 C-4.19968857 48.3723045 -4.19753436 45.03992384 -4.19287109 41.70751953 C-4.1871738 37.4265149 -4.19045285 33.14557295 -4.19644356 28.86457062 C-4.2000494 25.58416264 -4.19891048 22.30376963 -4.19631577 19.02336121 C-4.19564656 17.4444325 -4.1964747 15.86550246 -4.19879532 14.28657532 C-4.20132223 12.08359147 -4.19748075 9.88071051 -4.19189453 7.67773438 C-4.19109894 6.42166382 -4.19030334 5.16559326 -4.18948364 3.87145996 C-4.01219229 -0.05033886 -3.96436911 0.08090549 0 0 Z " fill="#044B8B" transform="translate(280.0625,175.9375)"/>
<path d="M0 0 C2.31 0 4.62 0 7 0 C6.85764543 1.72945653 6.71095618 3.45855654 6.5625 5.1875 C6.48128906 6.15042969 6.40007812 7.11335937 6.31640625 8.10546875 C6.02333849 10.78649602 5.57296246 13.3662986 5 16 C6.65 16 8.3 16 10 16 C10 16.66 10 17.32 10 18 C12.31 18.33 14.62 18.66 17 19 C15.96875 20.484375 15.96875 20.484375 14 22 C11.4075238 22.24523423 9.08133939 22.32866939 6.5 22.25 C5.82324219 22.24484375 5.14648438 22.2396875 4.44921875 22.234375 C1.38042263 22.18595218 -1.07083192 21.97638936 -4 21 C-6.3406065 21.27769908 -8.67624308 21.60539977 -11 22 C-11.33 24.31 -11.66 26.62 -12 29 C-12.96926297 25.98451521 -13.40721244 23.90823905 -12 21 C-8.9375 19.25 -8.9375 19.25 -6 18 C-6.99 17.34 -7.98 16.68 -9 16 C-7.02 16 -5.04 16 -3 16 C-2.86722656 15.01257813 -2.73445313 14.02515625 -2.59765625 13.0078125 C-2.42105469 11.72648438 -2.24445313 10.44515625 -2.0625 9.125 C-1.88847656 7.84882813 -1.71445312 6.57265625 -1.53515625 5.2578125 C-1 2 -1 2 0 0 Z " fill="#094784" transform="translate(466,226)"/>
<path d="M0 0 C2.3125 -0.25 2.3125 -0.25 5 0 C7.69642883 2.32450761 7.98583627 3.90262433 8.5 7.4375 C7.88016043 11.85385691 6.37648267 13.2144018 3 16 C0.5625 14.9375 0.5625 14.9375 -2 13 C-3.28544924 8.74194939 -3.28646182 6.6850174 -1.5625 2.5625 C-1.046875 1.716875 -0.53125 0.87125 0 0 Z " fill="#064887" transform="translate(517,206)"/>
<path d="M0 0 C2.4375 -0.4375 2.4375 -0.4375 5 0 C7.76320996 2.38207755 7.9864419 3.84814927 8.3125 7.5 C7.85858586 12.58383838 7.85858586 12.58383838 6 15 C4.125 16 4.125 16 2 16 C-0.25 14.625 -0.25 14.625 -2 12 C-2.69668959 7.28460096 -2.67503116 4.01254674 0 0 Z " fill="#094882" transform="translate(468,206)"/>
<path d="M0 0 C1.4540625 0.0309375 1.4540625 0.0309375 2.9375 0.0625 C3.5975 2.0425 4.2575 4.0225 4.9375 6.0625 C3.9475 6.7225 2.9575 7.3825 1.9375 8.0625 C1.9375 6.7425 1.9375 5.4225 1.9375 4.0625 C-0.0425 5.0525 -0.0425 5.0525 -2.0625 6.0625 C-2.3925 27.8425 -2.7225 49.6225 -3.0625 72.0625 C-3.3925 72.0625 -3.7225 72.0625 -4.0625 72.0625 C-4.08562524 62.82252448 -4.10341601 53.58255886 -4.11431217 44.34256077 C-4.11954061 40.05250085 -4.12663753 35.76246067 -4.13793945 31.47241211 C-4.14876975 27.335706 -4.15477714 23.19901892 -4.15737724 19.06229973 C-4.15923124 17.48057696 -4.16285136 15.89885529 -4.16823006 14.31714058 C-4.1754424 12.10927162 -4.17649086 9.90148227 -4.17602539 7.69360352 C-4.178246 6.43451675 -4.18046661 5.17542999 -4.18275452 3.87818909 C-4.01501563 -0.04931877 -3.96827801 0.08098527 0 0 Z " fill="#114673" transform="translate(280.0625,175.9375)"/>
<path d="M0 0 C2.31 0 4.62 0 7 0 C5.37660195 1.70884005 3.70680947 3.37446717 2 5 C1.34 5 0.68 5 0 5 C0.33 26.45 0.66 47.9 1 70 C0.34 70 -0.32 70 -1 70 C-1.02317404 61.46375499 -1.04094093 52.92752312 -1.05181217 44.39125443 C-1.05702991 40.42749164 -1.06410745 36.46375039 -1.07543945 32.5 C-1.08630771 28.67450499 -1.0922852 24.84903068 -1.09487724 21.02352142 C-1.09672438 19.56429468 -1.10033136 18.10506906 -1.10573006 16.64585114 C-1.11299274 14.60144098 -1.11398873 12.5571163 -1.11352539 10.51269531 C-1.115746 9.34909485 -1.11796661 8.18549438 -1.12025452 6.9866333 C-1.01864113 4.4629699 -0.74229493 2.39892955 0 0 Z " fill="#124375" transform="translate(259,176)"/>
<path d="M0 0 C2.31 0 4.62 0 7 0 C7.2226746 1.43534841 7.42761906 2.87345525 7.625 4.3125 C7.74101563 5.11300781 7.85703125 5.91351563 7.9765625 6.73828125 C8 9 8 9 6 12 C3.37537756 12.26697888 0.98934067 12.34832984 -1.6328125 12.29296875 C-2.76056595 12.28660149 -2.76056595 12.28660149 -3.91110229 12.28010559 C-6.31609685 12.2632917 -8.72025809 12.22563624 -11.125 12.1875 C-12.75389416 12.17245659 -14.38280144 12.15876758 -16.01171875 12.14648438 C-20.00813434 12.11337954 -24.00392582 12.06158009 -28 12 C-28 11.67 -28 11.34 -28 11 C-17.44 11 -6.88 11 4 11 C4 9.02 4 7.04 4 5 C2.68 4.34 1.36 3.68 0 3 C0 2.01 0 1.02 0 0 Z " fill="#124675" transform="translate(80,176)"/>
<path d="M0 0 C2.49361571 1.20381448 4.68143083 2.45428722 7 4 C6.12737648 7.27233819 5.52609096 9.49087971 3.0625 11.875 C1 13 1 13 -2 13 C-2.05447047 11.58376784 -2.09300508 10.16691809 -2.125 8.75 C-2.14820313 7.96109375 -2.17140625 7.1721875 -2.1953125 6.359375 C-1.9828378 3.79268059 -1.28654105 2.2083933 0 0 Z " fill="#0F4577" transform="translate(442,229)"/>
<path d="M0 0 C0.99 -0.33 1.98 -0.66 3 -1 C5.33299825 -1.03954234 7.66708189 -1.04401732 10 -1 C8.96875 0.484375 8.96875 0.484375 7 2 C4.4075238 2.24523423 2.08133939 2.32866939 -0.5 2.25 C-1.17675781 2.24484375 -1.85351562 2.2396875 -2.55078125 2.234375 C-5.61957737 2.18595218 -8.07083192 1.97638936 -11 1 C-13.3406065 1.27769908 -15.67624308 1.60539977 -18 2 C-18.33 4.31 -18.66 6.62 -19 9 C-19.96392528 6.00112135 -20.35886391 3.91185125 -19 1 C-13.17348254 -2.25599505 -6.03173015 -3.01586508 0 0 Z " fill="#0B4178" transform="translate(473,246)"/>
<path d="M0 0 C0.66 0 1.32 0 2 0 C2.33 0.99 2.66 1.98 3 3 C6.56086658 4.18695553 9.97331024 4.35095418 13.6875 4.5625 C14.38939453 4.60568359 15.09128906 4.64886719 15.81445312 4.69335938 C17.54275206 4.7991736 19.2713511 4.90006581 21 5 C19 7 19 7 15.62890625 7.23046875 C14.2733677 7.22647796 12.91782794 7.21172505 11.5625 7.1875 C10.88123047 7.18685547 10.19996094 7.18621094 9.49804688 7.18554688 C6.40402053 7.15827338 3.95469327 6.98489776 1 6 C0.67 6.33 0.34 6.66 0 7 C-2.375 7.25 -2.375 7.25 -5 7 C-6.8125 5.5 -6.8125 5.5 -8 4 C-5.33333333 4 -2.66666667 4 0 4 C0 2.68 0 1.36 0 0 Z " fill="#0A3F70" transform="translate(400,241)"/>
<path d="M0 0 C7.43378943 -0.33452052 13.19877155 -0.13902852 20 3 C20 3.33 20 3.66 20 4 C17.04160645 4.02689449 14.08345573 4.04678741 11.125 4.0625 C9.86236328 4.07506836 9.86236328 4.07506836 8.57421875 4.08789062 C7.76855469 4.09111328 6.96289062 4.09433594 6.1328125 4.09765625 C5.01737061 4.10551147 5.01737061 4.10551147 3.87939453 4.11352539 C2 4 2 4 0 3 C0 2.01 0 1.02 0 0 Z " fill="#0C3A64" transform="translate(224,192)"/>
<path d="M0 0 C13.2 0 26.4 0 40 0 C40 0.33 40 0.66 40 1 C39.0884314 1.03758423 39.0884314 1.03758423 38.15844727 1.07592773 C25.43104058 1.60458803 12.71325657 2.19795563 0 3 C0 2.01 0 1.02 0 0 Z " fill="#0D3B69" transform="translate(270,125)"/>
<path d="M0 0 C0.33 1.32 0.66 2.64 1 4 C2.98 4 4.96 4 7 4 C6.01 5.32 5.02 6.64 4 8 C4.99 8.33 5.98 8.66 7 9 C4.35559361 9.8814688 2.71939248 10.16174818 0 10.1875 C-0.680625 10.20167969 -1.36125 10.21585938 -2.0625 10.23046875 C-4 10 -4 10 -7 8 C-7.1875 5.375 -7.1875 5.375 -7 3 C-6.67 3.99 -6.34 4.98 -6 6 C-4.35 6 -2.7 6 -1 6 C-0.67 4.02 -0.34 2.04 0 0 Z " fill="#134179" transform="translate(385,238)"/>
<path d="M0 0 C2.6156379 3.00313981 4.79139514 6.14130015 6.8125 9.5625 C7.25207031 10.30628906 7.69164062 11.05007812 8.14453125 11.81640625 C9.14010478 14.35761906 8.93092208 15.48137034 8 18 C6.45503261 16.33456731 4.93974272 14.64157074 3.4375 12.9375 C2.16712891 11.52791016 2.16712891 11.52791016 0.87109375 10.08984375 C-1 7 -1 7 -0.77734375 3.12890625 C-0.52082031 2.09636719 -0.26429688 1.06382812 0 0 Z " fill="#09447E" transform="translate(406,168)"/>
<path d="M0 0 C4.62 0 9.24 0 14 0 C14.33 0.99 14.66 1.98 15 3 C9.72 3 4.44 3 -1 3 C-0.67 2.01 -0.34 1.02 0 0 Z " fill="#0F467D" transform="translate(273,122)"/>
<path d="M0 0 C5.4185766 -0.22577402 9.77487721 0.53329887 15 2 C15 2.33 15 2.66 15 3 C10.32798795 4.20568053 5.78503708 4.09382426 1 4 C0.67 2.68 0.34 1.36 0 0 Z " fill="#0A3967" transform="translate(320,48)"/>
<path d="M0 0 C0.33 0 0.66 0 1 0 C1 5.61 1 11.22 1 17 C0.01 17 -0.98 17 -2 17 C-1.85978195 14.35375716 -1.71310224 11.70815422 -1.5625 9.0625 C-1.52318359 8.30775391 -1.48386719 7.55300781 -1.44335938 6.77539062 C-1.11328125 1.11328125 -1.11328125 1.11328125 0 0 Z " fill="#0C3C6A" transform="translate(142,215)"/>
<path d="M0 0 C1.4540625 0.0309375 1.4540625 0.0309375 2.9375 0.0625 C3.5975 2.0425 4.2575 4.0225 4.9375 6.0625 C3.9475 6.7225 2.9575 7.3825 1.9375 8.0625 C1.9375 6.7425 1.9375 5.4225 1.9375 4.0625 C0.2875 4.7225 -1.3625 5.3825 -3.0625 6.0625 C-3.44468767 4.40635343 -3.77645102 2.73792976 -4.0625 1.0625 C-3.0625 0.0625 -3.0625 0.0625 0 0 Z " fill="#0A3D6D" transform="translate(280.0625,175.9375)"/>
<path d="M0 0 C2.31 0 4.62 0 7 0 C5.37660195 1.70884005 3.70680947 3.37446717 2 5 C1.34 5 0.68 5 0 5 C0 8.63 0 12.26 0 16 C-0.33 16 -0.66 16 -1 16 C-1.02712153 14.083412 -1.04645097 12.1667127 -1.0625 10.25 C-1.07410156 9.18265625 -1.08570313 8.1153125 -1.09765625 7.015625 C-1.01510087 4.46631499 -0.74617558 2.42066409 0 0 Z " fill="#0F396A" transform="translate(259,176)"/>
<path d="M0 0 C0.99 0.33 1.98 0.66 3 1 C3.625 4.375 3.625 4.375 4 8 C3.34 8.66 2.68 9.32 2 10 C0.5 8.875 0.5 8.875 -1 7 C-1.25 3.875 -1.25 3.875 -1 1 C-0.67 0.67 -0.34 0.34 0 0 Z " fill="#04488D" transform="translate(402,164)"/>
<path d="M0 0 C0.99 0.33 1.98 0.66 3 1 C5.63804589 0.60602665 5.63804589 0.60602665 8 0 C7.67 2.97 7.34 5.94 7 9 C6.34 9 5.68 9 5 9 C5 7.02 5 5.04 5 3 C3.68 3 2.36 3 1 3 C0.67 3.66 0.34 4.32 0 5 C0 3.35 0 1.7 0 0 Z " fill="#114474" transform="translate(464,233)"/>
<path d="M0 0 C2.31 0 4.62 0 7 0 C7.33 2.97 7.66 5.94 8 9 C7.34 9 6.68 9 6 9 C6 7.02 6 5.04 6 3 C4.02 3 2.04 3 0 3 C0 2.01 0 1.02 0 0 Z " fill="#0E3258" transform="translate(80,176)"/>
<path d="M0 0 C-5.625 4 -5.625 4 -9 4 C-9 3.34 -9 2.68 -9 2 C-11.31 2 -13.62 2 -16 2 C-16 1.67 -16 1.34 -16 1 C-13.70952777 0.63818911 -11.41757055 0.28576776 -9.125 -0.0625 C-7.84882813 -0.25972656 -6.57265625 -0.45695313 -5.2578125 -0.66015625 C-2 -1 -2 -1 0 0 Z " fill="#0C4174" transform="translate(307,136)"/>
<path d="M0 0 C3.96 0 7.92 0 12 0 C11.67 0.99 11.34 1.98 11 3 C9.54257537 3.08096803 8.08387193 3.13917774 6.625 3.1875 C5.81289062 3.22230469 5.00078125 3.25710937 4.1640625 3.29296875 C3.44992188 3.19628906 2.73578125 3.09960938 2 3 C1.34 2.01 0.68 1.02 0 0 Z " fill="#0E3F6A" transform="translate(244,72)"/>
<path d="M0 0 C-1.01953125 1.48828125 -1.01953125 1.48828125 -3 3 C-5.64996326 3.2172101 -8.05076558 3.28351554 -10.6875 3.1875 C-11.38939453 3.17396484 -12.09128906 3.16042969 -12.81445312 3.14648438 C-14.54329829 3.11120182 -16.27174765 3.05739583 -18 3 C-18 2.67 -18 2.34 -18 2 C-11.93184478 0.77100654 -6.20104812 -0.27560214 0 0 Z " fill="#0A3A67" transform="translate(483,245)"/>
<path d="M0 0 C0.94875 0.04125 1.8975 0.0825 2.875 0.125 C2.545 0.785 2.215 1.445 1.875 2.125 C0.555 2.125 -0.765 2.125 -2.125 2.125 C-2.455 3.115 -2.785 4.105 -3.125 5.125 C-2.465 5.125 -1.805 5.125 -1.125 5.125 C-1.455 7.105 -1.785 9.085 -2.125 11.125 C-4.92408133 8.32591867 -4.84862983 5.99418237 -5.125 2.125 C-3.125 0.125 -3.125 0.125 0 0 Z " fill="#114173" transform="translate(149.125,190.875)"/>
<path d="M0 0 C0.33 0 0.66 0 1 0 C1 3.63 1 7.26 1 11 C0.01 11.33 -0.98 11.66 -2 12 C-1.85904936 10.3745692 -1.71207913 8.74965949 -1.5625 7.125 C-1.48128906 6.22007812 -1.40007812 5.31515625 -1.31640625 4.3828125 C-1 2 -1 2 0 0 Z " fill="#134771" transform="translate(394,230)"/>
<path d="M0 0 C0.33 0 0.66 0 1 0 C1.33 3.96 1.66 7.92 2 12 C0.68 12 -0.64 12 -2 12 C-1.34 8.04 -0.68 4.08 0 0 Z " fill="#0D4578" transform="translate(250,96)"/>
<path d="M0 0 C1.32 0 2.64 0 4 0 C4 1.65 4 3.3 4 5 C2.68 5.33 1.36 5.66 0 6 C-0.38218767 4.34385343 -0.71395102 2.67542976 -1 1 C-0.67 0.67 -0.34 0.34 0 0 Z " fill="#024B8C" transform="translate(467,227)"/>
<path d="M0 0 C-1 3 -1 3 -2.671875 3.9140625 C-3.35765625 4.14867187 -4.0434375 4.38328125 -4.75 4.625 C-5.82507813 4.99431641 -5.82507813 4.99431641 -6.921875 5.37109375 C-9.26153715 6.0791494 -11.58448288 6.62257545 -14 7 C-11.725306 4.44736912 -9.56797307 3.15855185 -6.4375 1.8125 C-5.65246094 1.46832031 -4.86742187 1.12414062 -4.05859375 0.76953125 C-2 0 -2 0 0 0 Z " fill="#0F4376" transform="translate(220,128)"/>
<path d="M0 0 C1.32 1.32 2.64 2.64 4 4 C3.67 4.99 3.34 5.98 3 7 C1.68 7 0.36 7 -1 7 C-0.67 4.69 -0.34 2.38 0 0 Z " fill="#02457E" transform="translate(137,195)"/>
<path d="M0 0 C0.33 0 0.66 0 1 0 C2.32854177 5.9180497 1.66464729 8.77729131 -1 14 C-2.15837573 10.52487282 -1.77265943 8.86329714 -1.0625 5.3125 C-0.86785156 4.31863281 -0.67320312 3.32476562 -0.47265625 2.30078125 C-0.31667969 1.54152344 -0.16070313 0.78226563 0 0 Z " fill="#154572" transform="translate(514,227)"/>
<path d="M0 0 C3 1 3 1 4.5 3.0625 C5.2425 4.0215625 5.2425 4.0215625 6 5 C6.99 5 7.98 5 9 5 C9 5.66 9 6.32 9 7 C8.01 7.33 7.02 7.66 6 8 C1.125 3.375 1.125 3.375 0 0 Z " fill="#0D3F72" transform="translate(167,243)"/>
<path d="M0 0 C2.31 0 4.62 0 7 0 C6.01 0.495 6.01 0.495 5 1 C4.67 1.99 4.34 2.98 4 4 C2.68 4 1.36 4 0 4 C0 2.68 0 1.36 0 0 Z " fill="#104874" transform="translate(124,192)"/>
<path d="M0 0 C-0.33 1.32 -0.66 2.64 -1 4 C-3.31 4 -5.62 4 -8 4 C-8 3.34 -8 2.68 -8 2 C-4.91190305 0.23537317 -3.76687864 0 0 0 Z " fill="#0B466C" transform="translate(308,192)"/>
<path d="M0 0 C0.66 0.99 1.32 1.98 2 3 C2.99 3.33 3.98 3.66 5 4 C5 4.66 5 5.32 5 6 C3.02 6 1.04 6 -1 6 C-0.67 4.02 -0.34 2.04 0 0 Z " fill="#0C417F" transform="translate(162,164)"/>
<path d="M0 0 C0.33 0.66 0.66 1.32 1 2 C0.01 3.485 0.01 3.485 -1 5 C-1.99 4.67 -2.98 4.34 -4 4 C-4 3.34 -4 2.68 -4 2 C-4.99 1.67 -5.98 1.34 -7 1 C-3.535 0.505 -3.535 0.505 0 0 Z " fill="#0D406D" transform="translate(308,47)"/>
<path d="M0 0 C0.99 0 1.98 0 3 0 C3 2.31 3 4.62 3 7 C2.34 7 1.68 7 1 7 C0.34 5.02 -0.32 3.04 -1 1 C-0.67 0.67 -0.34 0.34 0 0 Z " fill="#044790" transform="translate(517,227)"/>
<path d="M0 0 C0.99 0.33 1.98 0.66 3 1 C2.34 2.98 1.68 4.96 1 7 C0.34 7 -0.32 7 -1 7 C-1.04254356 5.00045254 -1.04080783 2.99958364 -1 1 C-0.67 0.67 -0.34 0.34 0 0 Z " fill="#05439F" transform="translate(402,164)"/>
</svg>
